{
 "cells": [
  {
   "cell_type": "code",
   "execution_count": 1,
   "metadata": {},
   "outputs": [],
   "source": [
    "# %load_ext autoreload\n",
    "%reload_ext autoreload\n",
    "%autoreload 2"
   ]
  },
  {
   "cell_type": "markdown",
   "metadata": {},
   "source": [
    "## Convert to audio"
   ]
  },
  {
   "cell_type": "code",
   "execution_count": 2,
   "metadata": {},
   "outputs": [
    {
     "data": {
      "text/plain": [
       "True"
      ]
     },
     "execution_count": 2,
     "metadata": {},
     "output_type": "execute_result"
    }
   ],
   "source": [
    "import os\n",
    "from dotenv import load_dotenv\n",
    "load_dotenv()"
   ]
  },
  {
   "cell_type": "code",
   "execution_count": null,
   "metadata": {},
   "outputs": [],
   "source": [
    "# local file\n"
   ]
  },
  {
   "cell_type": "code",
   "execution_count": null,
   "metadata": {},
   "outputs": [],
   "source": []
  },
  {
   "cell_type": "code",
   "execution_count": null,
   "metadata": {},
   "outputs": [],
   "source": []
  },
  {
   "cell_type": "code",
   "execution_count": null,
   "metadata": {},
   "outputs": [],
   "source": []
  },
  {
   "cell_type": "code",
   "execution_count": null,
   "metadata": {},
   "outputs": [],
   "source": []
  },
  {
   "cell_type": "markdown",
   "metadata": {},
   "source": [
    "## `ffmpeg` binary static file"
   ]
  },
  {
   "cell_type": "code",
   "execution_count": null,
   "metadata": {},
   "outputs": [],
   "source": [
    "import os"
   ]
  },
  {
   "cell_type": "code",
   "execution_count": 10,
   "metadata": {},
   "outputs": [],
   "source": [
    "FFMPEG_PATH = os.path.expanduser('~/Downloads/ffmpeg')\n",
    "input_path = os.path.expanduser('~/Downloads/test.mp4')\n",
    "output_path = os.path.expanduser('~/Downloads/output.mp3')"
   ]
  },
  {
   "cell_type": "markdown",
   "metadata": {},
   "source": [
    "Download binary static files here: https://www.osxexperts.net/. Use `uname -m` to check the os system. For example, Apple Silicon -> `arm64` -> download Apple Silicon instead."
   ]
  },
  {
   "cell_type": "code",
   "execution_count": null,
   "metadata": {},
   "outputs": [
    {
     "name": "stdout",
     "output_type": "stream",
     "text": [
      "FFmpeg version: ffmpeg version 7.1 Copyright (c) 2000-2024 the FFmpeg developers\n"
     ]
    },
    {
     "data": {
      "text/plain": [
       "True"
      ]
     },
     "execution_count": 12,
     "metadata": {},
     "output_type": "execute_result"
    }
   ],
   "source": [
    "import stat\n",
    "import subprocess\n",
    "\n",
    "def make_executable(file_path):\n",
    "    \"\"\"Make binary executable\"\"\"\n",
    "    st = os.stat(file_path)\n",
    "    os.chmod(file_path, st.st_mode | stat.S_IEXEC)\n",
    "\n",
    "def verify_ffmpeg_binary(ffmpeg_path):\n",
    "    \"\"\"Check binary compatibility\"\"\"\n",
    "    try:\n",
    "        # Attempt to run with version check\n",
    "        result = subprocess.run(\n",
    "            [ffmpeg_path, '-version'], \n",
    "            capture_output=True, \n",
    "            text=True\n",
    "        )\n",
    "        print(\"FFmpeg version:\", result.stdout.split('\\n')[0])\n",
    "        return True\n",
    "    except Exception as e:\n",
    "        print(f\"Binary error: {e}\")\n",
    "        return False\n",
    "\n",
    "# Usage\n",
    "ffmpeg_path = '/Users/thi/Downloads/ffmpeg'\n",
    "make_executable(ffmpeg_path)\n",
    "verify_ffmpeg_binary(ffmpeg_path)\n"
   ]
  },
  {
   "cell_type": "code",
   "execution_count": 13,
   "metadata": {},
   "outputs": [
    {
     "name": "stderr",
     "output_type": "stream",
     "text": [
      "ffmpeg version 7.1 Copyright (c) 2000-2024 the FFmpeg developers\n",
      "  built with Apple clang version 13.1.6 (clang-1316.0.21.2.5)\n",
      "  configuration: --prefix=/Volumes/tempdisk/sw --extra-cflags=-fno-stack-check --arch=arm64 --cc=/usr/bin/clang --enable-gpl --enable-libvmaf --enable-libopenjpeg --enable-libopus --enable-libmp3lame --enable-libx264 --enable-libx265 --enable-libvpx --enable-libwebp --enable-libass --enable-libfreetype --enable-fontconfig --enable-libtheora --enable-libvorbis --enable-libsnappy --enable-libaom --enable-libvidstab --enable-libzimg --enable-libsvtav1 --enable-libharfbuzz --enable-libkvazaar --pkg-config-flags=--static --enable-ffplay --enable-postproc --enable-neon --enable-runtime-cpudetect --disable-indev=qtkit --disable-indev=x11grab_xcb\n",
      "  libavutil      59. 39.100 / 59. 39.100\n",
      "  libavcodec     61. 19.100 / 61. 19.100\n",
      "  libavformat    61.  7.100 / 61.  7.100\n",
      "  libavdevice    61.  3.100 / 61.  3.100\n",
      "  libavfilter    10.  4.100 / 10.  4.100\n",
      "  libswscale      8.  3.100 /  8.  3.100\n",
      "  libswresample   5.  3.100 /  5.  3.100\n",
      "  libpostproc    58.  3.100 / 58.  3.100\n",
      "Input #0, mov,mp4,m4a,3gp,3g2,mj2, from '/Users/thi/Downloads/test.mp4':\n",
      "  Metadata:\n",
      "    major_brand     : mp42\n",
      "    minor_version   : 1\n",
      "    compatible_brands: isommp41mp42\n",
      "    creation_time   : 2024-12-02T10:27:03.000000Z\n",
      "  Duration: 00:06:44.90, start: 0.000000, bitrate: 167 kb/s\n",
      "  Stream #0:0[0x1](und): Video: h264 (Main) (avc1 / 0x31637661), yuv420p(tv, bt709, progressive), 256x144 [SAR 1:1 DAR 16:9], 35 kb/s, 24 fps, 24 tbr, 12288 tbn (default)\n",
      "      Metadata:\n",
      "        creation_time   : 2024-12-02T10:27:03.000000Z\n",
      "        handler_name    : Core Media Video\n",
      "        vendor_id       : [0][0][0][0]\n",
      "  Stream #0:1[0x2](und): Audio: aac (LC) (mp4a / 0x6134706D), 44100 Hz, stereo, fltp, 127 kb/s (default)\n",
      "      Metadata:\n",
      "        creation_time   : 2024-12-02T10:27:03.000000Z\n",
      "        handler_name    : Core Media Audio\n",
      "        vendor_id       : [0][0][0][0]\n",
      "Stream mapping:\n",
      "  Stream #0:1 -> #0:0 (aac (native) -> mp3 (libmp3lame))\n",
      "Press [q] to stop, [?] for help\n",
      "Output #0, mp3, to '/Users/thi/Downloads/output.mp3':\n",
      "  Metadata:\n",
      "    major_brand     : mp42\n",
      "    minor_version   : 1\n",
      "    compatible_brands: isommp41mp42\n",
      "    TSSE            : Lavf61.7.100\n",
      "  Stream #0:0(und): Audio: mp3, 44100 Hz, stereo, fltp (default)\n",
      "      Metadata:\n",
      "        creation_time   : 2024-12-02T10:27:03.000000Z\n",
      "        handler_name    : Core Media Audio\n",
      "        vendor_id       : [0][0][0][0]\n",
      "        encoder         : Lavc61.19.100 libmp3lame\n",
      "[out#0/mp3 @ 0x130506510] video:0KiB audio:6326KiB subtitle:0KiB other streams:0KiB global headers:0KiB muxing overhead: 0.005388%\n",
      "size=    6326KiB time=00:06:44.85 bitrate= 128.0kbits/s speed= 142x    \n"
     ]
    }
   ],
   "source": [
    "def convert_video_subprocess(input_path, output_path, ffmpeg_binary_path):\n",
    "    command = [\n",
    "        ffmpeg_binary_path, \n",
    "        '-i', input_path, \n",
    "        '-c:v', 'libx264', \n",
    "        output_path\n",
    "    ]\n",
    "    subprocess.run(command, check=True)\n",
    "\n",
    "convert_video_subprocess(input_path, output_path, FFMPEG_PATH)"
   ]
  },
  {
   "cell_type": "code",
   "execution_count": null,
   "metadata": {},
   "outputs": [],
   "source": []
  }
 ],
 "metadata": {
  "kernelspec": {
   "display_name": "v2d4da",
   "language": "python",
   "name": "python3"
  },
  "language_info": {
   "codemirror_mode": {
    "name": "ipython",
    "version": 3
   },
   "file_extension": ".py",
   "mimetype": "text/x-python",
   "name": "python",
   "nbconvert_exporter": "python",
   "pygments_lexer": "ipython3",
   "version": "3.11.10"
  }
 },
 "nbformat": 4,
 "nbformat_minor": 2
}
